<svg xmlns="http://www.w3.org/2000/svg" xmlns:xlink="http://www.w3.org/1999/xlink" width="1584" zoomAndPan="magnify" viewBox="0 0 1188 221.999995" height="296" preserveAspectRatio="xMidYMid meet" version="1.0"><defs><g/></defs><g fill="#ffffff" fill-opacity="1"><g transform="translate(3.858052, 158.561514)"><g><path d="M 3.730469 -106.863281 C 10.296875 -106.863281 13.582031 -106.265625 16.117188 -102.234375 L 16.117188 -10.148438 C 16.117188 -2.238281 12.6875 -1.941406 5.523438 -1.941406 L 5.523438 0 L 28.65625 0 L 28.65625 -1.941406 C 21.640625 -1.941406 18.207031 -2.238281 18.058594 -9.703125 L 18.058594 -98.355469 C 18.207031 -98.058594 18.359375 -97.609375 18.507812 -97.3125 L 55.96875 0 L 58.058594 0 L 96.566406 -102.984375 L 96.566406 -10.148438 C 96.566406 -2.238281 93.132812 -1.941406 85.96875 -1.941406 L 85.96875 0 L 123.578125 0 L 123.578125 -1.941406 C 116.414062 -1.941406 112.980469 -2.238281 112.980469 -10.148438 L 112.980469 -99.25 C 113.132812 -106.566406 116.5625 -106.863281 123.578125 -106.863281 L 123.578125 -108.804688 L 96.566406 -108.804688 L 64.625 -23.28125 L 31.191406 -108.804688 L 3.730469 -108.804688 Z M 3.730469 -106.863281 "/></g></g></g><g fill="#ffffff" fill-opacity="1"><g transform="translate(131.914317, 158.561514)"><g><path d="M 5.96875 -21.492188 C 5.96875 -8.058594 14.925781 1.789062 30.445312 1.789062 C 39.253906 1.789062 49.699219 -2.238281 55.371094 -12.6875 L 55.96875 -12.6875 C 55.96875 -2.539062 60.148438 1.789062 72.535156 1.789062 C 85.96875 1.789062 89.550781 -6.121094 89.550781 -14.476562 L 87.609375 -14.476562 C 87.609375 -9.550781 85.074219 -2.089844 78.058594 -2.089844 C 72.238281 -2.089844 70.894531 -6.714844 70.894531 -14.476562 L 70.894531 -50.746094 C 70.894531 -65.222656 58.355469 -75.371094 38.058594 -75.371094 C 24.328125 -75.371094 8.65625 -67.164062 8.65625 -47.609375 L 10.597656 -47.609375 C 10.597656 -58.953125 19.253906 -67.910156 35.222656 -67.910156 C 50.894531 -67.910156 55.96875 -58.953125 55.96875 -50.746094 L 55.96875 -41.9375 C 52.089844 -44.625 46.566406 -46.714844 37.015625 -46.714844 C 26.863281 -46.714844 5.96875 -42.238281 5.96875 -21.492188 Z M 37.3125 -6.417969 C 26.417969 -6.417969 20.894531 -14.03125 20.894531 -26.117188 C 20.894531 -34.625 25.523438 -43.878906 37.015625 -44.625 C 43.28125 -45.074219 51.191406 -43.132812 55.96875 -39.253906 L 55.96875 -25.523438 C 55.96875 -12.835938 47.015625 -6.417969 37.3125 -6.417969 Z M 37.3125 -6.417969 "/></g></g></g><g fill="#ffffff" fill-opacity="1"><g transform="translate(221.464146, 158.561514)"><g><path d="M 2.984375 -71.640625 L 14.03125 -71.640625 L 14.03125 -15.96875 C 14.03125 -3.285156 18.207031 1.941406 31.492188 1.941406 C 43.582031 1.941406 47.609375 -7.164062 47.609375 -14.476562 L 45.671875 -14.476562 C 45.671875 -9.402344 42.984375 -2.238281 36.269531 -2.238281 C 30.148438 -2.238281 28.953125 -6.566406 28.953125 -14.476562 L 28.953125 -71.640625 L 44.925781 -71.640625 L 44.925781 -73.582031 L 28.953125 -73.582031 L 28.953125 -99.402344 L 27.015625 -99.402344 C 25.074219 -88.207031 19.105469 -75.667969 2.984375 -73.582031 Z M 2.984375 -71.640625 "/></g></g></g><g fill="#ffffff" fill-opacity="1"><g transform="translate(269.07482, 158.561514)"><g><path d="M 4.476562 -107.757812 C 12.238281 -107.757812 16.867188 -105.519531 16.867188 -99.550781 L 16.867188 -10 C 16.867188 -3.132812 13.582031 -1.941406 6.269531 -1.941406 L 6.269531 0 L 43.878906 0 L 43.878906 -1.941406 C 37.164062 -1.941406 31.789062 -2.984375 31.789062 -10 L 31.789062 -54.328125 C 31.789062 -63.132812 40.746094 -71.191406 51.191406 -71.191406 C 60.746094 -71.191406 64.625 -66.714844 64.625 -56.863281 L 64.625 -10 C 64.625 -3.132812 61.339844 -1.941406 54.179688 -1.941406 L 54.179688 0 L 90.148438 0 L 90.148438 -1.941406 C 83.132812 -1.941406 79.550781 -3.132812 79.550781 -10.148438 L 79.550781 -51.34375 C 79.550781 -70.296875 66.566406 -75.371094 56.117188 -75.371094 C 43.132812 -75.371094 36.269531 -69.550781 31.789062 -62.535156 L 31.789062 -115.070312 L 4.476562 -109.699219 Z M 4.476562 -107.757812 "/></g></g></g><g fill="#ffffff" fill-opacity="1"><g transform="translate(360.714134, 158.561514)"><g><path d="M 66.417969 -73.582031 L 66.417969 -71.640625 C 72.835938 -71.640625 74.328125 -69.847656 73.132812 -66.863281 L 53.730469 -19.851562 L 29.253906 -66.417969 C 26.863281 -70.894531 30.445312 -71.640625 36.566406 -71.640625 L 36.566406 -73.582031 L 2.835938 -73.582031 L 2.835938 -71.640625 C 8.507812 -71.640625 11.34375 -70.894531 13.582031 -66.566406 L 46.566406 -2.386719 L 44.179688 3.132812 C 38.65625 15.371094 32.535156 24.476562 19.851562 24.476562 C 7.613281 24.476562 2.539062 17.460938 -1.042969 6.867188 L -2.984375 6.867188 L 5.523438 30.296875 C 5.523438 30.296875 10.449219 35.074219 18.058594 35.074219 C 31.34375 35.074219 36.863281 26.417969 44.328125 8.207031 L 75.222656 -66.863281 C 76.566406 -70 80.59375 -71.640625 85.96875 -71.640625 L 85.96875 -73.582031 Z M 66.417969 -73.582031 "/></g></g></g><g fill="#ffffff" fill-opacity="1"><g transform="translate(448.920699, 158.561514)"><g><path d="M 7.910156 0 C 7.910156 -1.941406 8.804688 -3.285156 10.449219 -3.582031 C 16.417969 -4.777344 19.550781 1.789062 33.878906 1.789062 C 48.953125 1.789062 59.101562 -7.164062 59.253906 -19.550781 C 59.253906 -47.761719 19.550781 -40.148438 19.851562 -62.089844 C 19.851562 -68.355469 24.328125 -72.535156 31.042969 -72.535156 C 43.730469 -72.535156 51.191406 -61.9375 51.191406 -49.253906 L 53.28125 -49.253906 L 53.132812 -73.582031 L 51.191406 -73.582031 C 51.191406 -71.640625 50.445312 -69.847656 48.355469 -69.847656 C 43.730469 -69.847656 39.253906 -75.371094 29.550781 -75.371094 C 15.523438 -75.371094 6.269531 -67.164062 6.269531 -54.179688 C 6.417969 -27.609375 45.671875 -36.566406 45.671875 -13.285156 C 45.671875 -6.269531 40.746094 -1.195312 30.597656 -1.195312 C 21.492188 -1.195312 7.910156 -7.761719 7.910156 -30.894531 L 5.96875 -30.894531 L 5.96875 0 Z M 7.910156 0 "/></g></g></g><g fill="#ffffff" fill-opacity="1"><g transform="translate(512.650339, 158.561514)"><g/></g></g><g fill="#ffffff" fill-opacity="1"><g transform="translate(554.440259, 158.561514)"><g><path d="M 4.476562 0 L 49.253906 0 C 94.773438 0 109.699219 -26.566406 109.699219 -55.820312 C 109.699219 -103.878906 72.835938 -108.804688 53.132812 -108.804688 L 4.476562 -108.804688 L 4.476562 -106.863281 C 11.640625 -106.863281 14.777344 -105.667969 14.777344 -98.804688 L 14.777344 -10 C 14.777344 -2.984375 11.640625 -1.941406 4.476562 -1.941406 Z M 47.910156 -1.941406 C 35.820312 -1.941406 31.191406 -3.132812 31.191406 -10 L 31.191406 -98.953125 C 31.191406 -105.667969 36.417969 -106.863281 50.445312 -106.863281 C 75.074219 -106.863281 93.429688 -89.847656 93.429688 -55.820312 C 93.429688 -30.746094 85.371094 -1.941406 47.910156 -1.941406 Z M 47.910156 -1.941406 "/></g></g></g><g fill="#ffffff" fill-opacity="1"><g transform="translate(671.60126, 158.561514)"><g><path d="M 43.878906 1.789062 C 67.460938 1.789062 75.820312 -15.371094 76.265625 -32.6875 L 74.328125 -32.6875 C 74.328125 -25.074219 70.296875 -6.417969 49.699219 -6.417969 C 30.148438 -6.417969 20.894531 -21.492188 20.894531 -42.386719 C 20.894531 -43.730469 20.894531 -45.074219 21.042969 -46.417969 L 74.328125 -46.417969 C 74.328125 -62.238281 63.730469 -75.371094 45.671875 -75.371094 C 20.746094 -75.371094 5.96875 -56.117188 5.96875 -36.417969 C 5.96875 -14.328125 18.804688 1.789062 43.878906 1.789062 Z M 21.34375 -48.355469 C 23.28125 -62.835938 32.238281 -72.386719 44.179688 -72.386719 C 59.847656 -72.386719 61.789062 -59.253906 61.789062 -48.355469 Z M 21.34375 -48.355469 "/></g></g></g><g fill="#ffffff" fill-opacity="1"><g transform="translate(751.599133, 158.561514)"><g><path d="M 7.910156 0 C 7.910156 -1.941406 8.804688 -3.285156 10.449219 -3.582031 C 16.417969 -4.777344 19.550781 1.789062 33.878906 1.789062 C 48.953125 1.789062 59.101562 -7.164062 59.253906 -19.550781 C 59.253906 -47.761719 19.550781 -40.148438 19.851562 -62.089844 C 19.851562 -68.355469 24.328125 -72.535156 31.042969 -72.535156 C 43.730469 -72.535156 51.191406 -61.9375 51.191406 -49.253906 L 53.28125 -49.253906 L 53.132812 -73.582031 L 51.191406 -73.582031 C 51.191406 -71.640625 50.445312 -69.847656 48.355469 -69.847656 C 43.730469 -69.847656 39.253906 -75.371094 29.550781 -75.371094 C 15.523438 -75.371094 6.269531 -67.164062 6.269531 -54.179688 C 6.417969 -27.609375 45.671875 -36.566406 45.671875 -13.285156 C 45.671875 -6.269531 40.746094 -1.195312 30.597656 -1.195312 C 21.492188 -1.195312 7.910156 -7.761719 7.910156 -30.894531 L 5.96875 -30.894531 L 5.96875 0 Z M 7.910156 0 "/></g></g></g><g fill="#ffffff" fill-opacity="1"><g transform="translate(815.328773, 158.561514)"><g><path d="M 4.476562 -107.757812 C 12.238281 -107.757812 16.867188 -105.519531 16.867188 -99.550781 L 16.867188 -10 C 16.867188 -3.132812 13.582031 -1.941406 6.269531 -1.941406 L 6.269531 0 L 43.878906 0 L 43.878906 -1.941406 C 37.164062 -1.941406 31.789062 -2.984375 31.789062 -10 L 31.789062 -54.328125 C 31.789062 -63.132812 40.746094 -71.191406 51.191406 -71.191406 C 60.746094 -71.191406 64.625 -66.714844 64.625 -56.863281 L 64.625 -10 C 64.625 -3.132812 61.339844 -1.941406 54.179688 -1.941406 L 54.179688 0 L 90.148438 0 L 90.148438 -1.941406 C 83.132812 -1.941406 79.550781 -3.132812 79.550781 -10.148438 L 79.550781 -51.34375 C 79.550781 -70.296875 66.566406 -75.371094 56.117188 -75.371094 C 43.132812 -75.371094 36.269531 -69.550781 31.789062 -62.535156 L 31.789062 -115.070312 L 4.476562 -109.699219 Z M 4.476562 -107.757812 "/></g></g></g><g fill="#ffffff" fill-opacity="1"><g transform="translate(906.968053, 158.561514)"><g><path d="M 5.96875 -21.492188 C 5.96875 -8.058594 14.925781 1.789062 30.445312 1.789062 C 39.253906 1.789062 49.699219 -2.238281 55.371094 -12.6875 L 55.96875 -12.6875 C 55.96875 -2.539062 60.148438 1.789062 72.535156 1.789062 C 85.96875 1.789062 89.550781 -6.121094 89.550781 -14.476562 L 87.609375 -14.476562 C 87.609375 -9.550781 85.074219 -2.089844 78.058594 -2.089844 C 72.238281 -2.089844 70.894531 -6.714844 70.894531 -14.476562 L 70.894531 -50.746094 C 70.894531 -65.222656 58.355469 -75.371094 38.058594 -75.371094 C 24.328125 -75.371094 8.65625 -67.164062 8.65625 -47.609375 L 10.597656 -47.609375 C 10.597656 -58.953125 19.253906 -67.910156 35.222656 -67.910156 C 50.894531 -67.910156 55.96875 -58.953125 55.96875 -50.746094 L 55.96875 -41.9375 C 52.089844 -44.625 46.566406 -46.714844 37.015625 -46.714844 C 26.863281 -46.714844 5.96875 -42.238281 5.96875 -21.492188 Z M 37.3125 -6.417969 C 26.417969 -6.417969 20.894531 -14.03125 20.894531 -26.117188 C 20.894531 -34.625 25.523438 -43.878906 37.015625 -44.625 C 43.28125 -45.074219 51.191406 -43.132812 55.96875 -39.253906 L 55.96875 -25.523438 C 55.96875 -12.835938 47.015625 -6.417969 37.3125 -6.417969 Z M 37.3125 -6.417969 "/></g></g></g><g fill="#ffffff" fill-opacity="1"><g transform="translate(996.517881, 158.561514)"><g><path d="M 4.476562 -66.265625 C 12.238281 -66.265625 16.867188 -64.027344 16.867188 -58.058594 L 16.867188 -10 C 16.867188 -3.132812 13.433594 -1.941406 6.269531 -1.941406 L 6.269531 0 L 42.386719 0 L 42.386719 -1.941406 C 35.523438 -1.941406 31.789062 -2.984375 31.789062 -10 L 31.789062 -73.582031 L 4.476562 -68.207031 Z M 24.328125 -87.160156 C 28.804688 -87.160156 32.535156 -90.742188 32.535156 -95.222656 C 32.535156 -99.699219 28.804688 -103.28125 24.328125 -103.28125 C 19.851562 -103.28125 16.269531 -99.699219 16.269531 -95.222656 C 16.269531 -90.742188 19.851562 -87.160156 24.328125 -87.160156 Z M 24.328125 -87.160156 "/></g></g></g><g fill="#ffffff" fill-opacity="1"><g transform="translate(1040.397253, 158.561514)"><g><path d="M 43.878906 1.789062 C 67.460938 1.789062 75.820312 -15.371094 76.265625 -32.6875 L 74.328125 -32.6875 C 74.328125 -25.074219 70.296875 -6.417969 49.699219 -6.417969 C 30.148438 -6.417969 20.894531 -21.492188 20.894531 -42.386719 C 20.894531 -43.730469 20.894531 -45.074219 21.042969 -46.417969 L 74.328125 -46.417969 C 74.328125 -62.238281 63.730469 -75.371094 45.671875 -75.371094 C 20.746094 -75.371094 5.96875 -56.117188 5.96875 -36.417969 C 5.96875 -14.328125 18.804688 1.789062 43.878906 1.789062 Z M 21.34375 -48.355469 C 23.28125 -62.835938 32.238281 -72.386719 44.179688 -72.386719 C 59.847656 -72.386719 61.789062 -59.253906 61.789062 -48.355469 Z M 21.34375 -48.355469 "/></g></g></g><g fill="#ffffff" fill-opacity="1"><g transform="translate(1120.395058, 158.561514)"><g><path d="M 7.910156 0 C 7.910156 -1.941406 8.804688 -3.285156 10.449219 -3.582031 C 16.417969 -4.777344 19.550781 1.789062 33.878906 1.789062 C 48.953125 1.789062 59.101562 -7.164062 59.253906 -19.550781 C 59.253906 -47.761719 19.550781 -40.148438 19.851562 -62.089844 C 19.851562 -68.355469 24.328125 -72.535156 31.042969 -72.535156 C 43.730469 -72.535156 51.191406 -61.9375 51.191406 -49.253906 L 53.28125 -49.253906 L 53.132812 -73.582031 L 51.191406 -73.582031 C 51.191406 -71.640625 50.445312 -69.847656 48.355469 -69.847656 C 43.730469 -69.847656 39.253906 -75.371094 29.550781 -75.371094 C 15.523438 -75.371094 6.269531 -67.164062 6.269531 -54.179688 C 6.417969 -27.609375 45.671875 -36.566406 45.671875 -13.285156 C 45.671875 -6.269531 40.746094 -1.195312 30.597656 -1.195312 C 21.492188 -1.195312 7.910156 -7.761719 7.910156 -30.894531 L 5.96875 -30.894531 L 5.96875 0 Z M 7.910156 0 "/></g></g></g></svg>